<svg xmlns="http://www.w3.org/2000/svg" data-name="Layer 1" width="652.67538" height="737.69735" viewBox="0 0 652.67538 737.69735" xmlns:xlink="http://www.w3.org/1999/xlink"><path d="M716.0545,662.01138c20.71891-19.50449,31.40172-48.72315,20.27081-73.43931-16.20391,24.871-42.87969,44.45842-73.80763,54.19517-12.046,3.7924-25.89865,6.9208-32.45066,16.48645-4.077,5.9519-4.374,13.406-2.53719,20.14551,1.83708,6.73977,5.61922,12.9392,9.36387,19.05382l.0214,1.7289C666.23411,692.723,695.33559,681.51587,716.0545,662.01138Z" transform="translate(-273.66231 -81.15133)" fill="#f2f2f2"/><path d="M735.7023,588.70321c-3.49328,21.5242-14.92435,42.21824-32.40175,57.81849a51.44093,51.44093,0,0,1-12.76928,8.70714,33.52333,33.52333,0,0,1-15.29669,2.82647c-4.94545-.15744-9.98311-.816-14.88649.07366a18.15767,18.15767,0,0,0-11.9173,7.74069c-3.25081,4.78111-4.33029,10.29186-5.17036,15.71278-.93273,6.0189-1.79179,12.28349-5.75466,17.46107-.48015.62733.66839,1.23791,1.14782.61152,6.89471-9.0081,4.58792-20.52051,9.24-30.23507,2.17075-4.533,5.92709-8.52512,11.5426-9.89395,4.91052-1.197,10.10607-.52171,15.11186-.3247a35.978,35.978,0,0,0,15.0754-2.27954,48.26189,48.26189,0,0,0,13.10749-8.24851,103.57929,103.57929,0,0,0,21.58561-25.54948A96.83416,96.83416,0,0,0,737.04868,588.728c.12067-.74352-1.2265-.76341-1.34638-.02475Z" transform="translate(-273.66231 -81.15133)" fill="#fff"/><path d="M709.28944,641.71127a20.13531,20.13531,0,0,0,23.31026-1.48874c.61524-.52987-.30363-1.38534-.91969-.85477a18.6407,18.6407,0,0,1-21.68666,1.34633c-.69722-.44685-1.39714.55288-.70391.99718Z" transform="translate(-273.66231 -81.15133)" fill="#fff"/><path d="M677.73,658.42205a27.07541,27.07541,0,0,1,5.27237-21.54516c.47758-.62879-.67081-1.23956-1.14782-.61153a28.1524,28.1524,0,0,0-5.43392,22.42938c.14378.74376,1.45236.467,1.30937-.27269Z" transform="translate(-273.66231 -81.15133)" fill="#fff"/><path d="M729.00668,612.25972a9.15431,9.15431,0,0,1-5.87543-6.69974c-.13285-.745-1.44135-.46743-1.30936.2727a10.24883,10.24883,0,0,0,6.48088,7.42421.76075.76075,0,0,0,.92586-.19282.5453.5453,0,0,0-.22195-.80435Z" transform="translate(-273.66231 -81.15133)" fill="#fff"/><path d="M638.07649,560.46947c.06772.46722.13545.93445.19485,1.40842a101.68393,101.68393,0,0,1,.84875,18.948c-.01488.48939-.03845.98515-.06949,1.47315a110.23434,110.23434,0,0,1-12.31785,44.0915,115.86519,115.86519,0,0,1-10.03845,15.95591c-5.25818,7.02893-11.60313,14.28662-13.81627,22.18173a18.1455,18.1455,0,0,0-.54716,2.49619l32.15476,33.0461c.11646.04324.22464.09319.34145.1368l1.2144,1.37043c.21745-.25059.43679-.51455.65424-.76513.12683-.14491.2465-.29718.37334-.44208.08228-.09894.16427-.19828.245-.28347.02753-.03284.05471-.06605.0736-.09255.08077-.0852.14538-.17178.21745-.25059q1.846-2.2088,3.66277-4.4478c.00869-.00638.00869-.00638.01021-.02012,9.195-11.39393,17.37581-23.55485,23.17194-36.40789.17424-.38676.35752-.77952.51706-1.18137a103.1307,103.1307,0,0,0,6.055-17.87824,88.69,88.69,0,0,0,1.76459-10.09938,73.20129,73.20129,0,0,0-1.77768-26.20332c-4.32949-17.14232-14.92143-32.8909-31.64657-42.32632C638.93443,560.93835,638.51323,560.7042,638.07649,560.46947Z" transform="translate(-273.66231 -81.15133)" fill="#f2f2f2"/><path d="M637.666,560.89831c12.12757,19.013,17.34194,41.51512,14.19853,63.11264a40.42793,40.42793,0,0,1-4.1613,13.63116,27.28805,27.28805,0,0,1-10.25475,10.25775c-4.05777,2.461-8.53648,4.57014-11.835,7.84523a14.41539,14.41539,0,0,0-4.15082,12.41388c.71783,5.51779,3.675,10.48244,6.76107,15.25014,3.42649,5.29362,7.08209,10.74488,7.50614,16.95168.05138.752,1.39157.6388,1.34027-.1121-.73778-10.79876-10.558-18.78421-13.576-28.974-1.40824-4.75476-1.17565-9.907,2.35939-13.93715,3.09124-3.52419,7.70758-5.70256,11.841-8.16354a29.57127,29.57127,0,0,0,10.45709-9.70532,37.74407,37.74407,0,0,0,4.7492-13.44188,88.27749,88.27749,0,0,0-.47147-31.69023,97.48316,97.48316,0,0,0-13.67119-34.12271c-.41893-.65678-1.50835.032-1.09216.68447Z" transform="translate(-273.66231 -81.15133)" fill="#fff"/><path d="M653.31258,617.03758c8.80672-.08023,16.32122-5.82012,17.58021-13.38116.124-.74487-1.2025-.9473-1.3267-.20144-1.17945,7.08337-8.15017,12.34323-16.38254,12.41823-.86637.0079-.73238,1.17222.129,1.16437Z" transform="translate(-273.66231 -81.15133)" fill="#fff"/><path d="M639.69509,646.88744a28.74709,28.74709,0,0,1-10.72159-19.96032c-.05444-.75186-1.39465-.63885-1.34027.1121A29.92166,29.92166,0,0,0,638.83862,647.79c.63024.51865,1.48329-.38676.85647-.9026Z" transform="translate(-273.66231 -81.15133)" fill="#fff"/><path d="M648.64511,583.209a11.29456,11.29456,0,0,1-9.33427-2.27621c-.62236-.52533-1.47478.38069-.85648.9026a12.656,12.656,0,0,0,10.31978,2.538c.35754-.06991.6395-.295.60562-.63823a.65814.65814,0,0,0-.73465-.52614Z" transform="translate(-273.66231 -81.15133)" fill="#fff"/><path d="M563.56774,699.19884c-40.02074,27.36347-79.81176,34.30775-112.0423,19.555-41.361-18.93227-66.4159-71.05714-68.74026-143.00921l2.45026.22979c2.29142,70.95032,26.75382,122.23765,67.114,140.71152,31.36661,14.35747,70.29816,7.45716,109.623-19.43Z" transform="translate(-273.66231 -81.15133)" fill="#f2f2f2"/><path d="M810.88729,235.88005c-3.9411,43.42332-15.16889,89.21081-32.77757,133.38965-21.7754,54.633-51.52607,102.75356-86.03669,139.15916l-1.91518-1.66994c34.34355-36.23054,63.959-84.13862,85.64343-138.54566,19.59747-49.16659,31.25384-100.33187,33.72431-147.9418l2.44728.40972Q811.58341,228.22351,810.88729,235.88005Z" transform="translate(-273.66231 -81.15133)" fill="#f2f2f2"/><path d="M704.57052,174.16641l-2.37941.26061c-10.60747-41.68436-31.16817-70.56285-59.46151-83.514-35.96775-16.46321-80.44329-5.40786-125.23408,31.13-45.01841,36.7244-84.87155,94.733-112.21718,163.34285l-2.30845-1.05643C430.43561,215.42,470.49331,157.131,515.764,120.2025c45.4977-37.11521,90.881-48.25163,127.78958-31.35736C672.65839,102.16741,693.75735,131.67113,704.57052,174.16641Z" transform="translate(-273.66231 -81.15133)" fill="#f2f2f2"/><path d="M836.58379,537.07455C788.11133,614.19063,729.304,669.29036,670.9936,692.22263l-1.17954-2.16253C727.72088,667.28626,786.18388,612.46858,834.4349,535.705Z" transform="translate(-273.66231 -81.15133)" fill="#f2f2f2"/><path d="M911.36981,364.30126q-1.19813,13.20117-3.07161,26.72544l-2.431-.58922c9.32938-67.28318,6.0203-128.9742-9.57334-178.41606l2.34277-.3921C912.23738,254.7586,916.56068,307.10782,911.36981,364.30126Z" transform="translate(-273.66231 -81.15133)" fill="#f2f2f2"/><path d="M405.0962,297.45493c-6.22163,13.10661-12.13942,26.68513-17.58915,40.358-31.36052,78.68222-47.25268,159.03767-45.954,232.38347l-2.451-.26154c-1.3-73.61855,14.6379-154.25079,46.09659-233.17836,5.46537-13.71145,11.4-27.32833,17.63956-40.47193Z" transform="translate(-273.66231 -81.15133)" fill="#f2f2f2"/><path d="M562.39127,753.26257c-40.02074,27.36346-79.81176,34.30774-112.0423,19.555-41.361-18.93226-66.4159-71.05713-68.74026-143.00921l2.45026.2298c2.29142,70.95032,26.75382,122.23765,67.114,140.71152,31.36661,14.35746,70.29816,7.45716,109.623-19.43Z" transform="translate(-273.66231 -81.15133)" fill="#f2f2f2"/><path d="M809.71082,289.94378c-3.9411,43.42331-15.16889,89.21081-32.77757,133.38965-21.7754,54.633-51.52607,102.75355-86.03669,139.15916l-1.91518-1.66994c34.34355-36.23054,63.959-84.13863,85.64343-138.54566,19.59747-49.1666,31.25384-100.33187,33.72431-147.9418l2.44728.40972Q810.40694,282.28724,809.71082,289.94378Z" transform="translate(-273.66231 -81.15133)" fill="#f2f2f2"/><path d="M805.39405,231.23014l-2.37941.26061c-10.60747-41.68436-31.16817-70.56286-59.46151-83.514-35.96775-16.46321-80.44329-5.40786-125.23408,31.13-45.01841,36.7244-84.87155,94.733-112.21718,163.34285l-2.30845-1.05644c27.46572-68.90947,67.52342-127.19839,112.79411-164.12693,45.4977-37.11521,90.881-48.25163,127.78958-31.35736C773.48192,159.23114,794.58088,188.73486,805.39405,231.23014Z" transform="translate(-273.66231 -81.15133)" fill="#f2f2f2"/><path d="M833.40732,610.13827c-48.47246,77.11608-107.27981,132.21582-165.59019,155.14809l-1.17954-2.16253C724.54441,740.35,783.00741,685.5323,831.25843,608.76875Z" transform="translate(-273.66231 -81.15133)" fill="#f2f2f2"/><path d="M910.19334,418.365q-1.19813,13.20119-3.07161,26.72544l-2.431-.58921c9.32938-67.28319,6.0203-128.9742-9.57334-178.41607l2.34277-.39209C911.06091,308.82233,915.38421,361.17155,910.19334,418.365Z" transform="translate(-273.66231 -81.15133)" fill="#f2f2f2"/><path d="M403.91973,351.51866c-6.22163,13.1066-12.13942,26.68513-17.58915,40.358-31.36052,78.68222-47.25268,159.03767-45.954,232.38347l-2.451-.26154c-1.3-73.61855,14.6379-154.25079,46.09659-233.17837,5.46537-13.71144,11.4-27.32832,17.63956-40.47192Z" transform="translate(-273.66231 -81.15133)" fill="#f2f2f2"/><ellipse cx="864.32364" cy="307.93216" rx="8.8567" ry="10.19466" transform="translate(-144.47665 775.8252) rotate(-56.36398)" fill="#fd6584"/><path d="M561.38843,365.49429c5.67341-8.69388,14.93655-15.52595,25.25254-16.1033,10.31655-.5772,22.71441,8.20791,27.806,17.24763,9.31353,16.53542,5.27209,32.435-7.55552,43.93543-1.742-.59089-7.82442-2.37605-9.59533-2.94639l-1.123-2.028-1.38548,1.23285c-15.8527,1.58167-31.16653-.18025-43.09809-11.99231C553.17288,384.56086,555.715,374.18817,561.38843,365.49429Z" transform="translate(-273.66231 -81.15133)" fill="#2f2e41"/><polygon points="330.231 400.404 328.357 417.785 329.46 440.578 278.975 434.58 274.231 400.404 280.275 400.463 330.231 400.404" fill="#ffb6b6"/><circle cx="309.50253" cy="304.328" r="20.96357" fill="#ffb7b7"/><path d="M559.93582,424.43022l11.99626-7.19775,23.99253-2.39926,21.206,10.79851-.21253,32.98785-13.45291,34.21415L547.08273,485.636l-2.14224-12.06829s-15.59514-20.94623,1.19963-32.94249Z" transform="translate(-273.66231 -81.15133)" fill="#c9453c"/><path d="M575.327,353.642a26.33087,26.33087,0,0,1,32.31645,32.9591c-12.76777,1.01911-25.38817-.173-35.33668-9.20646l-.88525-7.74857-3.63,6.48435q-5.49179-1.54494-11.00068-3.10914A26.88524,26.88524,0,0,1,575.327,353.642Z" transform="translate(-273.66231 -81.15133)" fill="#2f2e41"/><path d="M487.93506,326.47673a9.15745,9.15745,0,0,0,5.91887,12.73346l39.058,73.69608,15.7652-12.16774-43.35-68.61475a9.20709,9.20709,0,0,0-17.392-5.64705Z" transform="translate(-273.66231 -81.15133)" fill="#ffb6b6"/><path d="M552.0045,437.80855s-3.61933,3.20992-8.76643-5.65358c-4.12064-7.09591-24.6708-38.87024-27.58061-49.88492a7.194,7.194,0,0,1-7.118-5.20766l22.07417-8.56784c4.79851,2.39925,3.46672,5.72466,2.25,7.445l8.221,12.33146,27.34565,30.688-13.76829,16.57564Z" transform="translate(-273.66231 -81.15133)" fill="#c9453c"/><path d="M925.147,818.84867H274.853a1.19068,1.19068,0,0,1,0-2.38136H925.147a1.19068,1.19068,0,0,1,0,2.38136Z" transform="translate(-273.66231 -81.15133)" fill="#ccc"/><path d="M769.462,154.33192c-11.737-11.56873-27.41046-17.95367-43.12811-22.03857-17.79193-4.624-36.19037-7.34778-54.3667-9.96106q-28.41385-4.08517-57.05365-6.30194-28.601-2.20506-57.30573-2.5246c-17.05157-.191-34.21759-.1969-51.18634,1.69494-15.98248,1.78186-31.92645,5.35755-46.33533,12.69837a76.61574,76.61574,0,0,0-31.1026,28.46832c-6.89587,11.3667-10.99585,24.99249-9.57019,38.35376a47.036,47.036,0,0,0,6.01191,18.6778A64.802,64.802,0,0,0,439.976,230.03187c11.9057,10.05322,26.14019,17.40228,36.3822,29.35047a58.09505,58.09505,0,0,1,7.04718,10.17193c1.48724,2.75446,3.16,5.12488,5.92621,6.73169A14.396,14.396,0,0,0,505.268,275.1753c3.19061-2.50421,5.48181-6.36419,7.95062-9.54132l8.60889-11.07879a17.41386,17.41386,0,0,1,2.15222-2.76972c.58032-.47961-.377-.05713-.18726-.17663.1045-.06574.288-.02924.40216-.076a9.3466,9.3466,0,0,1,1.75519-.32611q9.42948-1.73383,18.89893-3.24305c23.30987-3.76117,46.77081-6.8637,70.32965-8.53582a327.16348,327.16348,0,0,1,36.5061-.87079c15.74378.64428,31.27014,3.77038,46.95612,5.119,16.88843,1.452,34.62774,1.2514,50.54126-5.26056,12.73736-5.21222,24.5639-13.9812,31.46032-26.09284a43.8867,43.8867,0,0,0,5.67206-18.70147C787.156,178.69416,779.89773,164.61811,769.462,154.33192Z" transform="translate(-273.66231 -81.15133)" fill="#e6e6e6"/><path d="M548.22147,125.73986q-4.50507,0-9.00455.04775c-28.80362.30566-58.572,2.63446-81.16179,17.48145-20.05081,13.17851-34.10356,42.53334-22.211,63.58548,5.46113,9.66672,15.3554,16.70332,25.83063,24.15224,4.10577,2.92029,8.35228,5.93979,12.42147,9.19179,8.88922,7.10356,17.26011,16.637,22.0758,27.3565l21.15134-27.21948,3.996-.7651c3.84474-.736,94.7117-17.96631,143.10547-12.37249,4.4505.51462,8.94936,1.10673,13.3,1.679,19.65957,2.58672,38.22854,5.02836,56.05534,1.42295,18.61051-3.766,39.04573-18.13929,40.26221-37.3599.83268-13.15867-7.72792-27.594-21.80857-36.77584-14.23751-9.28355-31.99487-13.11651-48.96294-16.247A856.34505,856.34505,0,0,0,548.22147,125.73986Z" transform="translate(-273.66231 -81.15133)" fill="#fff"/><path d="M712.36857,167.62255H508.10623a4.4443,4.4443,0,0,1,0-8.8886H712.36857a4.4443,4.4443,0,0,1,0,8.8886Z" transform="translate(-273.66231 -81.15133)" fill="#c9453c"/><path d="M712.36857,194.90217H508.10623a4.4443,4.4443,0,1,1,0-8.8886H712.36857a4.4443,4.4443,0,0,1,0,8.8886Z" transform="translate(-273.66231 -81.15133)" fill="#c9453c"/><path d="M531.91,222.18117H508.10623a4.4443,4.4443,0,0,1,0-8.8886H531.91a4.4443,4.4443,0,0,1,0,8.8886Z" transform="translate(-273.66231 -81.15133)" fill="#c9453c"/><circle cx="221.34163" cy="228.7425" r="18.88976" fill="#e6e6e6"/><ellipse cx="431.55564" cy="536.53388" rx="8.8567" ry="10.19466" transform="translate(-527.85556 517.48996) rotate(-56.36398)" fill="#f2f2f2"/><ellipse cx="836.85535" cy="535.24843" rx="8.8567" ry="10.19466" transform="translate(-345.98726 854.35819) rotate(-56.36398)" fill="#e6e6e6"/><ellipse cx="683.85535" cy="388.24843" rx="8.8567" ry="10.19466" transform="translate(-291.84999 661.40002) rotate(-56.36398)" fill="#e6e6e6"/><polygon points="356.417 715.978 345.379 715.978 340.127 673.404 356.417 673.404 356.417 715.978" fill="#ffb6b6"/><path d="M635.90507,816.25315h-7.91553l-1.41289-7.4732-3.61861,7.4732H601.96415a4.71923,4.71923,0,0,1-2.68162-8.60272l16.76509-11.57858V788.5167l17.634,1.05251Z" transform="translate(-273.66231 -81.15133)" fill="#2f2e41"/><polygon points="294.417 715.978 283.379 715.978 278.127 673.404 294.417 673.404 294.417 715.978" fill="#ffb6b6"/><path d="M573.90507,816.25315h-7.91553l-1.41289-7.4732-3.61861,7.4732H539.96415a4.71923,4.71923,0,0,1-2.68162-8.60272l16.76509-11.57858V788.5167l17.634,1.05251Z" transform="translate(-273.66231 -81.15133)" fill="#2f2e41"/><path d="M634.84168,760.41545h-.12l-2.12275-69.22333a18.1011,18.1011,0,0,0-.2375-17.10521l-.30391-.55013.788-3.65273a23.26659,23.26659,0,0,0-1.32959-14.00271l-1.98032-64.57252c7.07488-45.85118-26.64191-75.75357-26.64191-75.75357H552.38549L541.542,552.81105c-7.16852,69.84051-5.8678,137.89795,5.50762,203.83416l-.31011.15683c-1.11666.38545-1.59558,1.93233-1.07,3.45519s1.85694,2.44491,2.97359,2.05945l26.67414-.92777c1.11665-.38537,1.59575-1.93234,1.07-3.45519-.52557-1.52285-1.85694-2.44482-2.9736-2.05946l-1.81367.91734,3.86793-66.79789-.42925-12.20105.88432-13.84186,4.08866-62.26057,15.47615,76.563,15.80813,82.93272a2.908,2.908,0,0,0,1.96092,5.06349h21.58489a2.917,2.917,0,1,0,0-5.834Z" transform="translate(-273.66231 -81.15133)" fill="#2f2e41"/><path d="M611.28673,566.86062a9.15745,9.15745,0,0,0,2.03056-13.89428l7.736-83.04692L601.19767,471.453l-1.3607,81.1502a9.20709,9.20709,0,0,0,11.44976,14.25746Z" transform="translate(-273.66231 -81.15133)" fill="#ffb6b6"/><path d="M616.39523,425.96269s4.78671-.70039,4.23229,9.53421c-.44387,8.19356,1.66577,58.69669-1.9391,69.50387a7.194,7.194,0,0,1,3.09812,8.25758l-23.15846-4.93588c-2.69785-4.63721-2.13891-9.3985-.17816-10.17025l-.11518-14.82014-5.11817-48.85069,19.70961-8.07386Z" transform="translate(-273.66231 -81.15133)" fill="#c9453c"/></svg>