<?xml version="1.0" standalone="no"?>
<!DOCTYPE svg PUBLIC "-//W3C//DTD SVG 20010904//EN"
 "http://www.w3.org/TR/2001/REC-SVG-20010904/DTD/svg10.dtd">
<svg version="1.0" xmlns="http://www.w3.org/2000/svg"
 width="12021.000000pt" height="4051.000000pt" viewBox="0 0 12021.000000 4051.000000"
 preserveAspectRatio="xMidYMid meet">

<g transform="translate(0.000000,4051.000000) scale(0.100000,-0.100000)"
fill="#000000" stroke="none">
<path d="M21890 35933 c-976 -71 -1843 -410 -2610 -1021 -294 -235 -659 -626
-887 -952 -386 -550 -656 -1206 -767 -1860 -45 -264 -48 -322 -44 -781 4 -377
8 -456 27 -599 123 -912 484 -1725 1071 -2415 132 -156 402 -421 559 -550 74
-60 1334 -1165 2800 -2454 1466 -1289 2716 -2380 2776 -2426 114 -86 257 -226
336 -330 197 -258 316 -575 337 -895 27 -391 -79 -769 -306 -1090 -85 -121
-270 -306 -392 -393 -113 -80 -319 -185 -447 -227 -420 -139 -868 -107 -1268
91 l-121 59 -4864 4256 c-2676 2341 -4917 4307 -4980 4368 -752 732 -1773
1185 -2850 1267 -198 15 -678 6 -860 -15 -929 -111 -1735 -456 -2455 -1050
-151 -125 -452 -425 -577 -576 -594 -717 -932 -1506 -1055 -2465 -17 -133 -18
-511 -21 -7975 -2 -5530 0 -7879 8 -7985 72 -1007 448 -1921 1106 -2691 116
-135 385 -402 519 -515 1084 -911 2510 -1275 3900 -994 767 155 1459 491 2075
1009 484 407 925 988 1191 1568 219 476 339 911 406 1468 16 136 18 507 23
6050 l5 5905 23 97 c113 491 402 861 837 1074 239 117 448 160 720 151 242 -9
416 -52 627 -157 445 -222 760 -654 833 -1144 13 -92 15 -722 15 -5847 0
-3749 4 -5803 10 -5914 39 -653 196 -1237 486 -1815 319 -632 777 -1182 1342
-1608 1377 -1040 3232 -1223 4787 -472 1138 549 1998 1538 2390 2748 83 259
148 559 192 892 17 129 18 636 20 11120 2 9745 0 10998 -13 11100 -131 999
-625 1978 -1356 2685 -793 768 -1788 1217 -2892 1305 -117 9 -545 11 -656 3z"/>
<path d="M32670 19440 l0 -5670 1290 0 1290 0 2 3899 3 3899 2204 -3899 2204
-3899 1499 0 1498 0 0 5670 0 5670 -1275 0 -1275 0 -2 -3745 -3 -3745 -2139
3745 -2139 3745 -1578 0 -1579 0 0 -5670z"/>
<path d="M43920 19440 l0 -5670 1340 0 1340 0 0 2195 0 2195 2360 0 2360 0 0
1090 0 1090 -2360 0 -2360 0 0 1285 0 1285 2655 0 2655 0 0 1100 0 1100 -3995
0 -3995 0 0 -5670z"/>
<path d="M52980 24010 l0 -1100 1565 0 1565 0 0 -4570 0 -4570 1355 0 1355 0
0 4570 0 4570 1555 0 1555 0 0 1100 0 1100 -4475 0 -4475 0 0 -1100z"/>
<path d="M62990 19440 l0 -5670 845 0 845 0 0 2253 c0 2254 2 2419 36 2641
114 764 484 1323 1057 1596 259 124 524 180 854 180 1010 0 1526 -556 1603
-1725 6 -91 10 -1091 10 -2547 l0 -2398 840 0 841 0 -4 2713 c-3 2947 -1 2795
-57 3147 -194 1198 -842 1925 -1910 2144 -425 87 -925 96 -1345 25 -578 -98
-1078 -349 -1465 -739 -154 -155 -263 -297 -427 -556 -9 -15 -12 500 -12 2294
l-1 2312 -855 0 -855 0 0 -5670z"/>
<path d="M74940 21844 c-969 -53 -1704 -310 -2345 -820 -135 -108 -383 -355
-489 -487 -473 -592 -746 -1291 -842 -2157 -22 -196 -31 -886 -15 -1127 100
-1523 793 -2673 1963 -3259 640 -321 1416 -463 2253 -414 864 51 1605 305
2175 744 560 432 958 1049 1155 1789 l34 127 -848 0 -848 0 -32 -92 c-46 -133
-132 -308 -205 -418 -286 -429 -722 -682 -1343 -777 -139 -21 -637 -25 -758
-5 -375 61 -624 150 -866 311 -446 297 -738 781 -874 1451 -29 142 -60 376
-71 528 l-7 102 2945 0 2945 0 7 61 c3 34 6 159 6 278 -1 888 -147 1627 -452
2281 -99 211 -268 481 -426 680 -101 126 -331 355 -462 460 -512 409 -1153
652 -1910 724 -154 15 -566 27 -690 20z m475 -1355 c253 -23 490 -89 700 -194
548 -273 879 -798 995 -1578 11 -73 20 -138 20 -144 0 -10 -419 -13 -2060 -13
-1133 0 -2060 1 -2060 3 0 2 9 55 21 118 69 385 196 725 369 989 339 516 879
799 1575 828 184 8 285 6 440 -9z"/>
<path d="M83533 21839 c-1032 -56 -1922 -439 -2558 -1101 -577 -600 -922
-1389 -1030 -2353 -23 -199 -32 -906 -16 -1142 128 -1832 1149 -3133 2781
-3542 788 -198 1731 -168 2485 79 564 185 1017 460 1415 859 278 279 477 555
656 911 233 463 367 943 430 1540 21 200 30 795 15 1035 -41 678 -181 1230
-447 1755 -475 942 -1288 1578 -2351 1839 -430 105 -900 146 -1380 120z m692
-1393 c762 -123 1275 -537 1550 -1251 91 -236 147 -477 191 -815 21 -166 31
-948 15 -1159 -75 -950 -406 -1615 -983 -1973 -244 -151 -546 -251 -878 -289
-136 -16 -487 -16 -615 0 -721 88 -1228 429 -1536 1033 -165 325 -265 701
-309 1168 -18 189 -24 703 -11 930 32 555 132 977 317 1340 304 597 805 936
1514 1026 145 18 608 12 745 -10z"/>
<path d="M97720 21839 c-582 -34 -1117 -167 -1585 -393 -369 -179 -643 -373
-930 -660 -280 -280 -479 -559 -659 -926 -227 -461 -355 -928 -418 -1530 -9
-86 -13 -281 -13 -620 0 -542 7 -651 66 -999 170 -1014 646 -1843 1374 -2391
729 -548 1690 -804 2780 -740 1025 61 1871 406 2475 1010 390 390 669 876 835
1456 25 85 45 164 45 175 0 19 -16 19 -844 19 l-843 0 -32 -92 c-271 -784
-963 -1217 -1947 -1218 -296 0 -540 36 -780 115 -478 157 -836 469 -1074 936
-133 261 -221 547 -274 893 -25 160 -46 357 -46 429 l0 37 2944 0 2943 0 6 83
c16 202 3 657 -28 962 -83 809 -317 1502 -696 2055 -154 226 -399 491 -604
655 -513 411 -1164 659 -1915 729 -211 20 -581 27 -780 15z m565 -1350 c885
-82 1462 -629 1659 -1574 19 -94 56 -323 56 -350 0 -3 -927 -5 -2060 -5
l-2061 0 6 38 c116 687 360 1166 755 1485 404 326 981 468 1645 406z"/>
<path d="M106968 21840 c-692 -51 -1273 -305 -1724 -755 -181 -180 -320 -358
-431 -554 -32 -57 -43 -69 -43 -51 0 14 -9 252 -20 530 -11 278 -20 538 -20
578 l0 72 -820 0 -820 0 0 -3945 0 -3945 850 0 850 0 0 2298 c0 1952 2 2322
15 2453 60 625 247 1093 573 1431 253 263 571 418 968 474 147 20 481 15 614
-9 296 -55 544 -184 715 -370 216 -235 342 -551 412 -1032 16 -111 17 -316 20
-2682 l3 -2563 850 0 850 0 3 2373 c3 2113 5 2385 19 2487 53 380 119 620 239
870 240 500 626 804 1154 910 138 28 464 39 612 21 766 -95 1158 -568 1248
-1509 13 -133 15 -519 15 -2654 l0 -2498 850 0 851 0 -4 2718 c-3 2957 0 2795
-58 3157 -101 634 -326 1131 -678 1498 -182 189 -353 313 -596 433 -282 138
-572 217 -940 255 -153 16 -568 16 -705 0 -596 -68 -1077 -262 -1510 -607
-119 -96 -350 -329 -453 -459 -85 -107 -237 -327 -271 -392 -9 -18 -20 -33
-25 -33 -5 0 -16 21 -26 48 -33 88 -143 306 -200 397 -248 393 -583 680 -993
851 -234 97 -473 158 -742 188 -170 20 -479 27 -632 16z"/>
<path d="M92954 21810 c-592 -43 -1108 -272 -1523 -675 -251 -243 -449 -523
-612 -860 l-58 -120 -1 95 c0 52 -9 376 -20 720 -11 344 -20 640 -20 658 l0
32 -815 0 -815 0 0 -3945 0 -3945 845 0 844 0 4 2163 c3 1966 5 2173 20 2286
78 569 254 981 556 1303 301 322 738 530 1261 603 215 30 780 29 933 -1 l27
-6 0 826 c0 778 -1 825 -18 830 -91 29 -429 49 -608 36z"/>
</g>
</svg>
