<svg width="300" height="90" viewBox="0 0 300 90" fill="none" xmlns="http://www.w3.org/2000/svg">
<path d="M141.86 32.189C144.849 32.189 147.249 33.1469 149.058 35.0628C150.867 36.9786 151.77 39.5284 151.77 42.7148V58.326H143.946V43.3771C143.946 42.0895 143.623 41.0719 142.981 40.3271C142.338 39.5824 141.407 39.2072 140.19 39.2072C138.902 39.2072 137.903 39.6307 137.192 40.4778C136.479 41.3248 136.122 42.496 136.122 43.9854V58.326H128.299V43.3771C128.299 42.0895 127.976 41.0719 127.333 40.3271C126.691 39.5824 125.759 39.2072 124.542 39.2072C123.254 39.2072 122.255 39.6307 121.545 40.4778C120.831 41.3248 120.475 42.496 120.475 43.9854V58.326H112.651V32.8996H120.475V35.239C121.901 33.2038 124.231 32.189 127.463 32.189C130.489 32.189 132.765 33.3089 134.297 35.546C135.896 33.3089 138.418 32.189 141.86 32.189V32.189Z" fill="#396993"/>
<path d="M178.78 55.1478C176.102 57.7402 172.832 59.0392 168.974 59.0392C165.116 59.0392 161.847 57.743 159.169 55.1478C156.491 52.5554 155.153 49.3775 155.153 45.614C155.153 41.8505 156.491 38.6725 159.169 36.0802C161.847 33.4878 165.116 32.1916 168.974 32.1916C172.832 32.1916 176.102 33.4878 178.78 36.0802C181.457 38.6725 182.796 41.8505 182.796 45.614C182.796 49.3775 181.457 52.5554 178.78 55.1478ZM164.697 49.9346C165.844 51.0545 167.27 51.6117 168.974 51.6117C170.678 51.6117 172.102 51.0517 173.251 49.9346C174.398 48.8146 174.972 47.3763 174.972 45.6111C174.972 43.8459 174.398 42.4076 173.251 41.2877C172.105 40.1677 170.678 39.6106 168.974 39.6106C167.27 39.6106 165.844 40.1705 164.697 41.2877C163.551 42.4048 162.976 43.8488 162.976 45.6111C162.976 47.3735 163.551 48.8146 164.697 49.9346Z" fill="#396993"/>
<path d="M194.39 58.3287H186.077V32.7631H193.974V38.9256C195.228 34.2099 198.523 32.1207 201.662 32.1207C202.964 32.1207 204.379 32.2429 205.795 33.0956L203.53 40.9694C201.549 40.2019 200.417 40.2105 199.465 40.2105C196.329 40.2105 194.393 42.0325 194.393 49.5339V58.3287H194.39Z" fill="#396993"/>
<path d="M225.719 32.8993H233.543V58.3256H225.719V55.3154C224.732 57.8737 221.287 59.0362 217.949 59.0362C214.612 59.0362 211.569 57.7401 209.135 55.1448C206.701 52.5525 205.483 49.3745 205.483 45.611C205.483 41.8475 206.701 38.6696 209.135 36.0772C211.569 33.4848 214.507 32.129 217.949 32.1886C223.882 32.291 225.864 35.1335 225.719 36.5548V32.8993ZM215.028 50.1363C216.175 51.2563 217.669 51.8134 219.515 51.8134C221.36 51.8134 222.852 51.2534 224.001 50.1363C225.15 49.0192 225.722 47.5098 225.722 45.611C225.722 43.7122 225.148 42.2028 224.001 41.0857C222.855 39.9686 221.357 39.4087 219.515 39.4087C217.672 39.4087 216.177 39.9686 215.028 41.0857C213.882 42.2057 213.307 43.7122 213.307 45.611C213.307 47.5098 213.882 49.0192 215.028 50.1363Z" fill="#396993"/>
<path d="M239.326 58.3258V21.2053H247.15V58.3258H239.326Z" fill="#396993"/>
<path d="M260.256 29.315C259.333 30.2133 258.229 30.6624 256.944 30.6624C255.659 30.6624 254.552 30.2133 253.632 29.315C252.709 28.4168 252.251 27.3395 252.251 26.0859C252.251 24.8324 252.712 23.7551 253.632 22.8568C254.552 21.9586 255.656 21.5095 256.944 21.5095C258.232 21.5095 259.333 21.9586 260.256 22.8568C261.176 23.7551 261.637 24.8324 261.637 26.0859C261.637 27.3395 261.176 28.4168 260.256 29.315ZM253.032 58.3258V32.8994H260.856V58.3258H253.032Z" fill="#396993"/>
<path d="M274.01 40.3241C274.01 40.833 274.454 41.248 275.34 41.5692C276.226 41.8904 277.296 42.2144 278.547 42.5356C279.798 42.8568 281.049 43.2718 282.303 43.7806C283.554 44.2895 284.624 45.128 285.51 46.2963C286.396 47.4646 286.841 48.9313 286.841 50.6937C286.841 53.4395 285.796 55.5174 283.71 56.9216C281.624 58.3287 279.051 59.0308 275.991 59.0308C270.497 59.0308 266.76 57.0154 264.779 52.9791L271.558 49.2156C272.255 51.2167 273.729 52.2144 275.991 52.2144C277.868 52.2144 278.807 51.6886 278.807 50.6368C278.807 50.128 278.363 49.7045 277.477 49.3662C276.591 49.0279 275.521 48.6982 274.27 48.3742C273.019 48.053 271.768 47.6294 270.514 47.1036C269.263 46.5777 268.193 45.7562 267.307 44.6363C266.421 43.5163 265.976 42.1434 265.976 40.5174C265.976 37.8739 266.959 35.8216 268.923 34.3634C270.887 32.9052 273.313 32.1775 276.198 32.1775C278.355 32.1775 280.319 32.6436 282.091 33.576C283.863 34.5083 285.289 35.8557 286.368 37.6181L279.693 41.1257C278.858 39.6334 277.692 38.8887 276.198 38.8887C274.703 38.8887 274.007 39.3634 274.007 40.3128L274.01 40.3241Z" fill="#396993"/>
<path d="M91.0797 26.0945C87.4568 18.4205 80.0667 13.1076 71.7369 12.4797C67.6556 12.099 63.444 12.7922 59.7645 14.6532C57.2936 15.8834 55.0944 17.5909 53.2461 19.6252C49.4336 15.2867 44.0474 12.4456 38.2338 12.1529C26.0123 11.4142 15.4776 19.3581 12.9105 31.6859C11.3509 39.07 13.052 46.7809 16.4286 53.2758C19.7996 59.6826 24.7188 65.3791 31.1183 68.726C35.5846 70.908 39.7707 65.3735 36.5045 61.5038C35.4629 60.3332 34.5034 59.0888 33.6288 57.7592C32.8165 56.5261 32.0863 55.2305 31.4239 53.9037C29.5842 50.1193 28.2115 45.8576 27.9398 41.6612C27.7784 38.9933 28.1266 36.6948 29.2304 34.3736C30.2748 32.2087 31.9674 30.3477 34.1892 29.4726C37.6451 28.1572 41.251 28.8646 43.8776 31.7058C45.5843 33.4701 46.3655 35.9391 47.2372 38.2177C47.3023 38.3825 47.3731 38.5416 47.4467 38.6979C49.1817 44.0705 57.1351 44.2069 58.621 38.0955C58.6663 37.8881 58.7116 37.6779 58.7597 37.4648C58.7682 37.4307 58.7767 37.3994 58.7852 37.3654C58.7937 37.3313 58.7993 37.2972 58.8078 37.2602C58.9352 36.7147 59.0824 36.1692 59.272 35.6607C59.8635 34.0213 60.8485 32.4388 62.0316 31.2313C63.8147 29.4101 66.0875 28.3106 68.5754 28.5549C69.968 28.6345 71.5388 29.0152 72.671 29.6317C79.0223 33.0894 78.36 42.1754 75.6372 48.1617C73.7239 52.3553 70.6614 55.8641 67.265 58.8956C66.4243 59.6428 65.4648 60.4668 64.5959 61.1629C60.6136 64.2682 59.5946 70.1466 62.742 74.36C66.1187 78.9911 72.8436 79.2156 76.7071 75.0959C77.4656 74.343 78.1987 73.5617 78.9204 72.7747C86.2086 64.6035 92.8317 52.4746 93.862 41.2975C94.2865 36.0726 93.361 30.8506 91.0769 26.0945H91.0797Z" fill="url(#paint0_radial_793_4459)"/>
<defs>
<radialGradient id="paint0_radial_793_4459" cx="0" cy="0" r="1" gradientUnits="userSpaceOnUse" gradientTransform="translate(68.5409 70.1613) rotate(-131.427) scale(67.7597 102.847)">
<stop stop-color="#33FFCC"/>
<stop offset="1" stop-color="#0F7FFF"/>
</radialGradient>
</defs>
</svg>
