<svg width="300" height="90" viewBox="0 0 300 90" fill="none" xmlns="http://www.w3.org/2000/svg">
<path d="M90.9802 26.1223C87.3509 18.4367 79.9478 13.1185 71.6034 12.4896C67.5148 12.1083 63.2958 12.8026 59.6098 14.6664C57.1345 15.8985 54.9315 17.6086 53.08 19.646C49.2608 15.2981 43.8622 12.4555 38.0384 12.1596C25.7953 11.4226 15.2421 19.3757 12.6705 31.725C11.1082 39.1204 12.8122 46.843 16.1948 53.3477C19.5717 59.7642 24.4996 65.4694 30.9103 68.8214C35.3845 71.0067 39.578 65.4637 36.306 61.5882C35.2626 60.4158 34.3014 59.1695 33.4253 57.8379C32.6115 56.6029 31.88 55.3054 31.2165 53.9765C29.3736 50.1864 27.9984 45.9182 27.7262 41.7154C27.5646 39.0435 27.9134 36.7416 29.0191 34.4168C30.0654 32.2486 31.7609 30.3848 33.9867 29.5084C37.4487 28.1909 41.0609 28.8994 43.6921 31.7449C45.4018 33.512 46.1844 35.9847 47.0577 38.2667C47.1229 38.4318 47.1938 38.5911 47.2675 38.7476C49.0056 44.1284 56.9729 44.265 58.4615 38.1444C58.5069 37.9367 58.5522 37.7261 58.6004 37.5127C58.6089 37.4785 58.6174 37.4472 58.6259 37.4131C58.6344 37.3789 58.6401 37.3448 58.6486 37.3078C58.7762 36.7615 58.9237 36.2151 59.1136 35.7058C59.7062 34.064 60.6929 32.479 61.8781 31.2697C63.6644 29.4458 65.9412 28.3446 68.4334 28.5893C69.8284 28.669 71.4021 29.0503 72.5362 29.6677C78.8987 33.1307 78.2353 42.2305 75.5077 48.2259C73.591 52.4258 70.5231 55.9399 67.1207 58.976C66.2786 59.7244 65.3174 60.5496 64.4469 61.2467C60.4576 64.3568 59.4369 70.2441 62.5898 74.4639C65.9724 79.102 72.7092 79.3268 76.5794 75.2009C77.3393 74.4468 78.0736 73.6643 78.7967 72.8761C86.0977 64.6926 92.7324 52.5453 93.7645 41.3512C94.1898 36.1184 93.2627 30.8884 90.9745 26.1251L90.9802 26.1223Z" fill="url(#paint0_radial_793_4475)"/>
<path d="M141.838 32.2144C144.832 32.2144 147.236 33.1733 149.048 35.0911C150.86 37.009 151.765 39.5614 151.765 42.7511V58.3784H143.928V43.4141C143.928 42.1251 143.604 41.1065 142.961 40.3609C142.317 39.6154 141.384 39.2398 140.165 39.2398C138.875 39.2398 137.874 39.6638 137.162 40.5118C136.448 41.3597 136.091 42.532 136.091 44.0231V58.3784H128.254V43.4141C128.254 42.1251 127.931 41.1065 127.287 40.3609C126.643 39.6154 125.71 39.2398 124.491 39.2398C123.201 39.2398 122.2 39.6638 121.489 40.5118C120.774 41.3597 120.417 42.532 120.417 44.0231V58.3784H112.58V32.9257H120.417V35.2676C121.846 33.2302 124.179 32.2144 127.417 32.2144C130.448 32.2144 132.728 33.3355 134.262 35.5749C135.864 33.3355 138.39 32.2144 141.838 32.2144Z" fill="white"/>
<path d="M179.242 55.1972C176.56 57.7923 173.285 59.0927 169.42 59.0927C165.556 59.0927 162.281 57.7951 159.599 55.1972C156.916 52.6022 155.575 49.4209 155.575 45.6535C155.575 41.8861 156.916 38.7049 159.599 36.1098C162.281 33.5148 165.556 32.2172 169.42 32.2172C173.285 32.2172 176.56 33.5148 179.242 36.1098C181.924 38.7049 183.265 41.8861 183.265 45.6535C183.265 49.4209 181.924 52.6022 179.242 55.1972ZM165.136 49.9786C166.284 51.0998 167.713 51.6575 169.42 51.6575C171.127 51.6575 172.553 51.0969 173.705 49.9786C174.853 48.8575 175.428 47.4177 175.428 45.6507C175.428 43.8836 174.853 42.4438 173.705 41.3227C172.556 40.2016 171.127 39.6439 169.42 39.6439C167.713 39.6439 166.284 40.2044 165.136 41.3227C163.988 42.441 163.412 43.8865 163.412 45.6507C163.412 47.4149 163.988 48.8575 165.136 49.9786Z" fill="white"/>
<path d="M195.08 58.3813H186.753V32.7892H194.663V38.9581C195.92 34.2375 199.22 32.1461 202.364 32.1461C203.411 32.1461 204.565 32.2001 205.979 32.8432L203.938 40.8902C202.208 40.2471 200.952 40.2471 200.167 40.2471C197.025 40.2471 195.086 42.0711 195.086 49.5803V58.3841L195.08 58.3813Z" fill="white"/>
<path d="M226.743 32.9257H234.58V58.3784H226.743V55.3651C225.753 57.926 222.303 59.0898 218.96 59.0898C215.617 59.0898 212.569 57.7923 210.13 55.1944C207.692 52.5993 206.473 49.4181 206.473 45.6507C206.473 41.8833 207.692 38.702 210.13 36.107C212.569 33.5119 215.512 32.1546 218.96 32.2144C224.903 32.3168 226.887 35.1623 226.743 36.585V32.9257ZM216.034 50.1806C217.182 51.3018 218.679 51.8595 220.528 51.8595C222.376 51.8595 223.871 51.2989 225.022 50.1806C226.173 49.0624 226.746 47.5514 226.746 45.6507C226.746 43.7499 226.17 42.239 225.022 41.1207C223.873 40.0024 222.373 39.4419 220.528 39.4419C218.682 39.4419 217.185 40.0024 216.034 41.1207C214.885 42.2418 214.31 43.7499 214.31 45.6507C214.31 47.5514 214.885 49.0624 216.034 50.1806Z" fill="white"/>
<path d="M240.372 58.3784V21.2195H248.209V58.3784H240.372Z" fill="white"/>
<path d="M261.337 29.3376C260.413 30.2368 259.307 30.6864 258.02 30.6864C256.732 30.6864 255.624 30.2368 254.702 29.3376C253.778 28.4384 253.319 27.36 253.319 26.1052C253.319 24.8503 253.781 23.7719 254.702 22.8727C255.624 21.9735 256.729 21.524 258.02 21.524C259.31 21.524 260.413 21.9735 261.337 22.8727C262.258 23.7719 262.721 24.8503 262.721 26.1052C262.721 27.36 262.258 28.4384 261.337 29.3376ZM254.101 58.3784V32.9257H261.938V58.3784H254.101Z" fill="white"/>
<path d="M275.114 40.3581C275.114 40.8674 275.559 41.2829 276.446 41.6044C277.334 41.926 278.406 42.2503 279.659 42.5719C280.912 42.8934 282.165 43.3089 283.421 43.8182C284.675 44.3275 285.746 45.1669 286.634 46.3364C287.521 47.5059 287.967 48.9742 287.967 50.7384C287.967 53.4871 286.92 55.5671 284.831 56.9728C282.741 58.3813 280.164 59.0841 277.099 59.0841C271.595 59.0841 267.853 57.0667 265.868 53.0261L272.658 49.2587C273.356 51.2619 274.833 52.2607 277.099 52.2607C278.978 52.2607 279.92 51.7343 279.92 50.6815C279.92 50.1721 279.475 49.7481 278.587 49.4095C277.7 49.0709 276.628 48.7408 275.375 48.4165C274.121 48.0949 272.868 47.671 271.612 47.1445C270.359 46.6181 269.287 45.7958 268.4 44.6747C267.512 43.5536 267.067 42.1792 267.067 40.5516C267.067 37.9053 268.051 35.8509 270.019 34.3912C271.986 32.9314 274.416 32.203 277.306 32.203C279.466 32.203 281.434 32.6697 283.209 33.603C284.984 34.5363 286.413 35.885 287.493 37.6492L280.807 41.1605C279.971 39.6667 278.803 38.9211 277.306 38.9211C275.809 38.9211 275.111 39.3963 275.111 40.3467L275.114 40.3581Z" fill="white"/>
<path d="M91.0797 26.0945C87.4568 18.4205 80.0667 13.1076 71.7369 12.4797C67.6556 12.099 63.444 12.7922 59.7645 14.6532C57.2936 15.8834 55.0944 17.5909 53.2461 19.6252C49.4336 15.2867 44.0474 12.4456 38.2338 12.1529C26.0123 11.4142 15.4776 19.3581 12.9105 31.6859C11.3509 39.07 13.052 46.7809 16.4286 53.2758C19.7996 59.6826 24.7188 65.3791 31.1183 68.726C35.5846 70.908 39.7707 65.3735 36.5045 61.5038C35.4629 60.3332 34.5034 59.0888 33.6288 57.7592C32.8165 56.5261 32.0863 55.2305 31.4239 53.9037C29.5842 50.1193 28.2115 45.8576 27.9398 41.6612C27.7784 38.9933 28.1266 36.6948 29.2304 34.3736C30.2748 32.2087 31.9674 30.3477 34.1892 29.4726C37.6451 28.1572 41.251 28.8646 43.8776 31.7058C45.5843 33.4701 46.3655 35.9391 47.2372 38.2177C47.3023 38.3825 47.3731 38.5416 47.4467 38.6979C49.1817 44.0705 57.1351 44.2069 58.621 38.0955C58.6663 37.8881 58.7116 37.6779 58.7597 37.4648C58.7682 37.4307 58.7767 37.3994 58.7852 37.3654C58.7937 37.3313 58.7993 37.2972 58.8078 37.2602C58.9352 36.7147 59.0824 36.1692 59.272 35.6607C59.8635 34.0213 60.8485 32.4388 62.0316 31.2313C63.8147 29.4101 66.0875 28.3106 68.5754 28.5549C69.968 28.6345 71.5388 29.0152 72.671 29.6317C79.0223 33.0894 78.36 42.1754 75.6372 48.1617C73.7239 52.3553 70.6614 55.8641 67.265 58.8956C66.4243 59.6428 65.4648 60.4668 64.5959 61.1629C60.6136 64.2682 59.5947 70.1466 62.742 74.36C66.1187 78.9911 72.8436 79.2156 76.7071 75.0959C77.4656 74.343 78.1987 73.5617 78.9204 72.7747C86.2086 64.6035 92.8317 52.4746 93.862 41.2975C94.2865 36.0726 93.361 30.8506 91.0769 26.0945H91.0797Z" fill="url(#paint1_radial_793_4475)"/>
<defs>
<radialGradient id="paint0_radial_793_4475" cx="0" cy="0" r="1" gradientUnits="userSpaceOnUse" gradientTransform="translate(68.2902 74.3698) rotate(-125.194) scale(70.959 107.7)">
<stop stop-color="#00FFCE"/>
<stop offset="1" stop-color="#56BEFF"/>
</radialGradient>
<radialGradient id="paint1_radial_793_4475" cx="0" cy="0" r="1" gradientUnits="userSpaceOnUse" gradientTransform="translate(68.5409 70.1613) rotate(-131.427) scale(67.7597 102.847)">
<stop offset="0.0001" stop-color="#33FFCC"/>
<stop offset="1" stop-color="#0F7FFF"/>
</radialGradient>
</defs>
</svg>
